<?xml version="1.0" encoding="UTF-8" standalone="no"?>
<!DOCTYPE svg PUBLIC "-//W3C//DTD SVG 1.1//EN"
 "http://www.w3.org/Graphics/SVG/1.1/DTD/svg11.dtd">
<!-- Generated by graphviz version 2.38.0 (20140413.2041)
 -->
<!-- Title: snakemake_dag Pages: 1 -->
<svg width="140pt" height="260pt"
 viewBox="0.00 0.00 139.50 260.00" xmlns="http://www.w3.org/2000/svg" xmlns:xlink="http://www.w3.org/1999/xlink">
<g id="graph0" class="graph" transform="scale(1 1) rotate(0) translate(4 256)">
<title>snakemake_dag</title>
<polygon fill="white" stroke="none" points="-4,4 -4,-256 135.5,-256 135.5,4 -4,4"/>
<!-- 0 -->
<g id="node1" class="node"><title>0</title>
<path fill="none" stroke="#d6d856" stroke-width="2" d="M64.5,-36C64.5,-36 34.5,-36 34.5,-36 28.5,-36 22.5,-30 22.5,-24 22.5,-24 22.5,-12 22.5,-12 22.5,-6 28.5,-0 34.5,-0 34.5,-0 64.5,-0 64.5,-0 70.5,-0 76.5,-6 76.5,-12 76.5,-12 76.5,-24 76.5,-24 76.5,-30 70.5,-36 64.5,-36"/>
<text text-anchor="middle" x="49.5" y="-15.5" font-family="sans" font-size="10.00">all</text>
</g>
<!-- 1 -->
<g id="node2" class="node"><title>1</title>
<path fill="none" stroke="#59d856" stroke-width="2" d="M73,-252C73,-252 12,-252 12,-252 6,-252 0,-246 0,-240 0,-240 0,-228 0,-228 0,-222 6,-216 12,-216 12,-216 73,-216 73,-216 79,-216 85,-222 85,-228 85,-228 85,-240 85,-240 85,-246 79,-252 73,-252"/>
<text text-anchor="middle" x="42.5" y="-231.5" font-family="sans" font-size="10.00">preprocessing</text>
</g>
<!-- 1&#45;&gt;0 -->
<g id="edge3" class="edge"><title>1&#45;&gt;0</title>
<path fill="none" stroke="grey" stroke-width="2" d="M37.6309,-215.979C34.9358,-205.665 31.8626,-192.189 30.5,-180 25.2465,-133.006 35.0719,-78.3514 42.4469,-46.3314"/>
<polygon fill="grey" stroke="grey" stroke-width="2" points="45.9039,-46.9241 44.8288,-36.3839 39.0963,-45.294 45.9039,-46.9241"/>
</g>
<!-- 2 -->
<g id="node3" class="node"><title>2</title>
<path fill="none" stroke="#56d8d8" stroke-width="2" d="M97.5,-180C97.5,-180 51.5,-180 51.5,-180 45.5,-180 39.5,-174 39.5,-168 39.5,-168 39.5,-156 39.5,-156 39.5,-150 45.5,-144 51.5,-144 51.5,-144 97.5,-144 97.5,-144 103.5,-144 109.5,-150 109.5,-156 109.5,-156 109.5,-168 109.5,-168 109.5,-174 103.5,-180 97.5,-180"/>
<text text-anchor="middle" x="74.5" y="-159.5" font-family="sans" font-size="10.00">integration</text>
</g>
<!-- 1&#45;&gt;2 -->
<g id="edge4" class="edge"><title>1&#45;&gt;2</title>
<path fill="none" stroke="grey" stroke-width="2" d="M50.4101,-215.697C54.0527,-207.728 58.4545,-198.1 62.4935,-189.264"/>
<polygon fill="grey" stroke="grey" stroke-width="2" points="65.7064,-190.654 66.6809,-180.104 59.3401,-187.744 65.7064,-190.654"/>
</g>
<!-- 2&#45;&gt;0 -->
<g id="edge2" class="edge"><title>2&#45;&gt;0</title>
<path fill="none" stroke="grey" stroke-width="2" d="M71.4844,-143.871C67.2236,-119.67 59.3963,-75.2108 54.3227,-46.3932"/>
<polygon fill="grey" stroke="grey" stroke-width="2" points="57.7072,-45.4309 52.5263,-36.1893 50.8133,-46.6447 57.7072,-45.4309"/>
</g>
<!-- 3 -->
<g id="node4" class="node"><title>3</title>
<path fill="none" stroke="#d85656" stroke-width="2" d="M119.5,-108C119.5,-108 89.5,-108 89.5,-108 83.5,-108 77.5,-102 77.5,-96 77.5,-96 77.5,-84 77.5,-84 77.5,-78 83.5,-72 89.5,-72 89.5,-72 119.5,-72 119.5,-72 125.5,-72 131.5,-78 131.5,-84 131.5,-84 131.5,-96 131.5,-96 131.5,-102 125.5,-108 119.5,-108"/>
<text text-anchor="middle" x="104.5" y="-87.5" font-family="sans" font-size="10.00">cluster</text>
</g>
<!-- 2&#45;&gt;3 -->
<g id="edge5" class="edge"><title>2&#45;&gt;3</title>
<path fill="none" stroke="grey" stroke-width="2" d="M81.9157,-143.697C85.2944,-135.813 89.3696,-126.304 93.123,-117.546"/>
<polygon fill="grey" stroke="grey" stroke-width="2" points="96.4473,-118.675 97.1696,-108.104 90.0133,-115.917 96.4473,-118.675"/>
</g>
<!-- 3&#45;&gt;0 -->
<g id="edge1" class="edge"><title>3&#45;&gt;0</title>
<path fill="none" stroke="grey" stroke-width="2" d="M90.9045,-71.6966C84.3773,-63.3893 76.432,-53.2771 69.2534,-44.1407"/>
<polygon fill="grey" stroke="grey" stroke-width="2" points="71.8695,-41.8051 62.9391,-36.1043 66.3653,-46.1299 71.8695,-41.8051"/>
</g>
</g>
</svg>
