<?xml version="1.0" encoding="UTF-8" standalone="no"?>
<!DOCTYPE svg PUBLIC "-//W3C//DTD SVG 1.1//EN"
 "http://www.w3.org/Graphics/SVG/1.1/DTD/svg11.dtd">
<!-- Generated by graphviz version 2.38.0 (20140413.2041)
 -->
<!-- Title: snakemake_dag Pages: 1 -->
<svg width="188pt" height="332pt"
 viewBox="0.00 0.00 188.00 332.00" xmlns="http://www.w3.org/2000/svg" xmlns:xlink="http://www.w3.org/1999/xlink">
<g id="graph0" class="graph" transform="scale(1 1) rotate(0) translate(4 328)">
<title>snakemake_dag</title>
<polygon fill="white" stroke="none" points="-4,4 -4,-328 184,-328 184,4 -4,4"/>
<!-- 0 -->
<g id="node1" class="node"><title>0</title>
<path fill="none" stroke="#56d88a" stroke-width="2" d="M78,-36C78,-36 48,-36 48,-36 42,-36 36,-30 36,-24 36,-24 36,-12 36,-12 36,-6 42,-0 48,-0 48,-0 78,-0 78,-0 84,-0 90,-6 90,-12 90,-12 90,-24 90,-24 90,-30 84,-36 78,-36"/>
<text text-anchor="middle" x="63" y="-15.5" font-family="sans" font-size="10.00">all</text>
</g>
<!-- 1 -->
<g id="node2" class="node"><title>1</title>
<path fill="none" stroke="#d85656" stroke-width="2" d="M58,-324C58,-324 12,-324 12,-324 6,-324 0,-318 0,-312 0,-312 0,-300 0,-300 0,-294 6,-288 12,-288 12,-288 58,-288 58,-288 64,-288 70,-294 70,-300 70,-300 70,-312 70,-312 70,-318 64,-324 58,-324"/>
<text text-anchor="middle" x="35" y="-303.5" font-family="sans" font-size="10.00">preprocess</text>
</g>
<!-- 1&#45;&gt;0 -->
<g id="edge1" class="edge"><title>1&#45;&gt;0</title>
<path fill="none" stroke="grey" stroke-width="2" d="M30.9409,-287.929C28.6944,-277.598 26.1334,-264.12 25,-252 17.9667,-176.79 40.7562,-89.1068 54.0729,-45.8924"/>
<polygon fill="grey" stroke="grey" stroke-width="2" points="57.4781,-46.7317 57.1516,-36.1419 50.803,-44.6239 57.4781,-46.7317"/>
</g>
<!-- 2 -->
<g id="node3" class="node"><title>2</title>
<path fill="none" stroke="#d8bc56" stroke-width="2" d="M83.5,-252C83.5,-252 46.5,-252 46.5,-252 40.5,-252 34.5,-246 34.5,-240 34.5,-240 34.5,-228 34.5,-228 34.5,-222 40.5,-216 46.5,-216 46.5,-216 83.5,-216 83.5,-216 89.5,-216 95.5,-222 95.5,-228 95.5,-228 95.5,-240 95.5,-240 95.5,-246 89.5,-252 83.5,-252"/>
<text text-anchor="middle" x="65" y="-231.5" font-family="sans" font-size="10.00">integrate</text>
</g>
<!-- 1&#45;&gt;2 -->
<g id="edge5" class="edge"><title>1&#45;&gt;2</title>
<path fill="none" stroke="grey" stroke-width="2" d="M42.4157,-287.697C45.7944,-279.813 49.8696,-270.304 53.623,-261.546"/>
<polygon fill="grey" stroke="grey" stroke-width="2" points="56.9473,-262.675 57.6696,-252.104 50.5133,-259.917 56.9473,-262.675"/>
</g>
<!-- 2&#45;&gt;0 -->
<g id="edge3" class="edge"><title>2&#45;&gt;0</title>
<path fill="none" stroke="grey" stroke-width="2" d="M64.1875,-215.819C63.738,-205.448 63.2257,-191.968 63,-180 62.1183,-133.252 62.3888,-78.8551 62.6823,-46.7652"/>
<polygon fill="grey" stroke="grey" stroke-width="2" points="66.1857,-46.4283 62.7852,-36.394 59.186,-46.3588 66.1857,-46.4283"/>
</g>
<!-- 3 -->
<g id="node4" class="node"><title>3</title>
<path fill="none" stroke="#56c1d8" stroke-width="2" d="M114,-180C114,-180 84,-180 84,-180 78,-180 72,-174 72,-168 72,-168 72,-156 72,-156 72,-150 78,-144 84,-144 84,-144 114,-144 114,-144 120,-144 126,-150 126,-156 126,-156 126,-168 126,-168 126,-174 120,-180 114,-180"/>
<text text-anchor="middle" x="99" y="-159.5" font-family="sans" font-size="10.00">cluster</text>
</g>
<!-- 2&#45;&gt;3 -->
<g id="edge6" class="edge"><title>2&#45;&gt;3</title>
<path fill="none" stroke="grey" stroke-width="2" d="M73.4045,-215.697C77.2748,-207.728 81.9517,-198.1 86.2431,-189.264"/>
<polygon fill="grey" stroke="grey" stroke-width="2" points="89.4714,-190.629 90.6922,-180.104 83.1748,-187.57 89.4714,-190.629"/>
</g>
<!-- 3&#45;&gt;0 -->
<g id="edge2" class="edge"><title>3&#45;&gt;0</title>
<path fill="none" stroke="grey" stroke-width="2" d="M94.6576,-143.871C88.495,-119.564 77.1512,-74.8187 69.8484,-46.0132"/>
<polygon fill="grey" stroke="grey" stroke-width="2" points="73.2081,-45.0225 67.3578,-36.1893 66.4227,-46.7427 73.2081,-45.0225"/>
</g>
<!-- 4 -->
<g id="node5" class="node"><title>4</title>
<path fill="none" stroke="#88d856" stroke-width="2" d="M168,-108C168,-108 122,-108 122,-108 116,-108 110,-102 110,-96 110,-96 110,-84 110,-84 110,-78 116,-72 122,-72 122,-72 168,-72 168,-72 174,-72 180,-78 180,-84 180,-84 180,-96 180,-96 180,-102 174,-108 168,-108"/>
<text text-anchor="middle" x="145" y="-87.5" font-family="sans" font-size="10.00">differential</text>
</g>
<!-- 3&#45;&gt;4 -->
<g id="edge7" class="edge"><title>3&#45;&gt;4</title>
<path fill="none" stroke="grey" stroke-width="2" d="M110.371,-143.697C115.718,-135.559 122.204,-125.689 128.111,-116.701"/>
<polygon fill="grey" stroke="grey" stroke-width="2" points="131.193,-118.384 133.76,-108.104 125.343,-114.539 131.193,-118.384"/>
</g>
<!-- 4&#45;&gt;0 -->
<g id="edge4" class="edge"><title>4&#45;&gt;0</title>
<path fill="none" stroke="grey" stroke-width="2" d="M124.73,-71.6966C114.502,-62.9655 101.939,-52.2405 90.8218,-42.7503"/>
<polygon fill="grey" stroke="grey" stroke-width="2" points="92.9146,-39.935 83.0365,-36.1043 88.3697,-45.259 92.9146,-39.935"/>
</g>
</g>
</svg>
