<?xml version="1.0" encoding="UTF-8" standalone="no"?>
<!DOCTYPE svg PUBLIC "-//W3C//DTD SVG 1.1//EN"
 "http://www.w3.org/Graphics/SVG/1.1/DTD/svg11.dtd">
<!-- Generated by graphviz version 2.42.3 (20191010.1750)
 -->
<!-- Title: snakemake_dag Pages: 1 -->
<svg width="378pt" height="692pt"
 viewBox="0.00 0.00 378.00 692.00" xmlns="http://www.w3.org/2000/svg" xmlns:xlink="http://www.w3.org/1999/xlink">
<g id="graph0" class="graph" transform="scale(1 1) rotate(0) translate(4 688)">
<title>snakemake_dag</title>
<polygon fill="white" stroke="transparent" points="-4,4 -4,-688 374,-688 374,4 -4,4"/>
<!-- 0 -->
<g id="node1" class="node">
<title>0</title>
<path fill="none" stroke="#ced856" stroke-width="2" d="M97,-36C97,-36 67,-36 67,-36 61,-36 55,-30 55,-24 55,-24 55,-12 55,-12 55,-6 61,0 67,0 67,0 97,0 97,0 103,0 109,-6 109,-12 109,-12 109,-24 109,-24 109,-30 103,-36 97,-36"/>
<text text-anchor="middle" x="82" y="-15.5" font-family="sans" font-size="10.00">all</text>
</g>
<!-- 1 -->
<g id="node2" class="node">
<title>1</title>
<path fill="none" stroke="#d89c56" stroke-width="2" d="M58,-684C58,-684 12,-684 12,-684 6,-684 0,-678 0,-672 0,-672 0,-660 0,-660 0,-654 6,-648 12,-648 12,-648 58,-648 58,-648 64,-648 70,-654 70,-660 70,-660 70,-672 70,-672 70,-678 64,-684 58,-684"/>
<text text-anchor="middle" x="35" y="-663.5" font-family="sans" font-size="10.00">preprocess</text>
</g>
<!-- 1&#45;&gt;0 -->
<g id="edge2" class="edge">
<title>1&#45;&gt;0</title>
<path fill="none" stroke="grey" stroke-width="2" d="M29.13,-647.74C20.66,-621.25 6,-568.79 6,-523 6,-523 6,-523 6,-161 6,-115.64 36.52,-70.75 58.88,-43.95"/>
<polygon fill="grey" stroke="grey" stroke-width="2" points="61.64,-46.09 65.51,-36.23 56.34,-41.53 61.64,-46.09"/>
</g>
<!-- 2 -->
<g id="node3" class="node">
<title>2</title>
<path fill="none" stroke="#d87556" stroke-width="2" d="M83.5,-612C83.5,-612 46.5,-612 46.5,-612 40.5,-612 34.5,-606 34.5,-600 34.5,-600 34.5,-588 34.5,-588 34.5,-582 40.5,-576 46.5,-576 46.5,-576 83.5,-576 83.5,-576 89.5,-576 95.5,-582 95.5,-588 95.5,-588 95.5,-600 95.5,-600 95.5,-606 89.5,-612 83.5,-612"/>
<text text-anchor="middle" x="65" y="-591.5" font-family="sans" font-size="10.00">integrate</text>
</g>
<!-- 1&#45;&gt;2 -->
<g id="edge6" class="edge">
<title>1&#45;&gt;2</title>
<path fill="none" stroke="grey" stroke-width="2" d="M42.42,-647.7C45.79,-639.81 49.87,-630.3 53.62,-621.55"/>
<polygon fill="grey" stroke="grey" stroke-width="2" points="56.95,-622.67 57.67,-612.1 50.51,-619.92 56.95,-622.67"/>
</g>
<!-- 2&#45;&gt;0 -->
<g id="edge1" class="edge">
<title>2&#45;&gt;0</title>
<path fill="none" stroke="grey" stroke-width="2" d="M60.75,-575.63C54.61,-548.99 44,-496.36 44,-451 44,-451 44,-451 44,-161 44,-119.63 59.23,-73.72 70.41,-45.61"/>
<polygon fill="grey" stroke="grey" stroke-width="2" points="73.76,-46.67 74.31,-36.09 67.28,-44.02 73.76,-46.67"/>
</g>
<!-- 3 -->
<g id="node4" class="node">
<title>3</title>
<path fill="none" stroke="#56d86b" stroke-width="2" d="M125,-540C125,-540 95,-540 95,-540 89,-540 83,-534 83,-528 83,-528 83,-516 83,-516 83,-510 89,-504 95,-504 95,-504 125,-504 125,-504 131,-504 137,-510 137,-516 137,-516 137,-528 137,-528 137,-534 131,-540 125,-540"/>
<text text-anchor="middle" x="110" y="-519.5" font-family="sans" font-size="10.00">cluster</text>
</g>
<!-- 2&#45;&gt;3 -->
<g id="edge7" class="edge">
<title>2&#45;&gt;3</title>
<path fill="none" stroke="grey" stroke-width="2" d="M76.12,-575.7C81.36,-567.56 87.7,-557.69 93.48,-548.7"/>
<polygon fill="grey" stroke="grey" stroke-width="2" points="96.54,-550.41 99,-540.1 90.65,-546.62 96.54,-550.41"/>
</g>
<!-- 3&#45;&gt;0 -->
<g id="edge3" class="edge">
<title>3&#45;&gt;0</title>
<path fill="none" stroke="grey" stroke-width="2" d="M104.33,-503.73C96.15,-477.21 82,-424.73 82,-379 82,-379 82,-379 82,-161 82,-121 82,-74.65 82,-46.08"/>
<polygon fill="grey" stroke="grey" stroke-width="2" points="85.5,-46.05 82,-36.05 78.5,-46.05 85.5,-46.05"/>
</g>
<!-- 4 -->
<g id="node5" class="node">
<title>4</title>
<path fill="none" stroke="#56d8d0" stroke-width="2" d="M168,-396C168,-396 122,-396 122,-396 116,-396 110,-390 110,-384 110,-384 110,-372 110,-372 110,-366 116,-360 122,-360 122,-360 168,-360 168,-360 174,-360 180,-366 180,-372 180,-372 180,-384 180,-384 180,-390 174,-396 168,-396"/>
<text text-anchor="middle" x="145" y="-375.5" font-family="sans" font-size="10.00">differential</text>
</g>
<!-- 3&#45;&gt;4 -->
<g id="edge8" class="edge">
<title>3&#45;&gt;4</title>
<path fill="none" stroke="grey" stroke-width="2" d="M114.22,-503.87C120.21,-479.56 131.24,-434.82 138.34,-406.01"/>
<polygon fill="grey" stroke="grey" stroke-width="2" points="141.77,-406.74 140.76,-396.19 134.97,-405.06 141.77,-406.74"/>
</g>
<!-- 13 -->
<g id="node14" class="node">
<title>13</title>
<path fill="none" stroke="#afd856" stroke-width="2" d="M225.5,-468C225.5,-468 160.5,-468 160.5,-468 154.5,-468 148.5,-462 148.5,-456 148.5,-456 148.5,-444 148.5,-444 148.5,-438 154.5,-432 160.5,-432 160.5,-432 225.5,-432 225.5,-432 231.5,-432 237.5,-438 237.5,-444 237.5,-444 237.5,-456 237.5,-456 237.5,-462 231.5,-468 225.5,-468"/>
<text text-anchor="middle" x="193" y="-447.5" font-family="sans" font-size="10.00">seurat_convert</text>
</g>
<!-- 3&#45;&gt;13 -->
<g id="edge20" class="edge">
<title>3&#45;&gt;13</title>
<path fill="none" stroke="grey" stroke-width="2" d="M130.52,-503.7C140.87,-494.97 153.59,-484.24 164.84,-474.75"/>
<polygon fill="grey" stroke="grey" stroke-width="2" points="167.33,-477.23 172.72,-468.1 162.82,-471.88 167.33,-477.23"/>
</g>
<!-- 4&#45;&gt;0 -->
<g id="edge5" class="edge">
<title>4&#45;&gt;0</title>
<path fill="none" stroke="grey" stroke-width="2" d="M139.94,-359.68C132.64,-333.11 120,-280.56 120,-235 120,-235 120,-235 120,-161 120,-119.63 104.77,-73.72 93.59,-45.61"/>
<polygon fill="grey" stroke="grey" stroke-width="2" points="96.72,-44.02 89.69,-36.09 90.24,-46.67 96.72,-44.02"/>
</g>
<!-- 5 -->
<g id="node6" class="node">
<title>5</title>
<path fill="none" stroke="#56d88a" stroke-width="2" d="M241,-108C241,-108 189,-108 189,-108 183,-108 177,-102 177,-96 177,-96 177,-84 177,-84 177,-78 183,-72 189,-72 189,-72 241,-72 241,-72 247,-72 253,-78 253,-84 253,-84 253,-96 253,-96 253,-102 247,-108 241,-108"/>
<text text-anchor="middle" x="215" y="-87.5" font-family="sans" font-size="10.00">RNAvelocity</text>
</g>
<!-- 5&#45;&gt;0 -->
<g id="edge4" class="edge">
<title>5&#45;&gt;0</title>
<path fill="none" stroke="grey" stroke-width="2" d="M182.46,-71.88C162.99,-61.63 138.21,-48.58 118.13,-38.01"/>
<polygon fill="grey" stroke="grey" stroke-width="2" points="119.75,-34.91 109.27,-33.35 116.49,-41.11 119.75,-34.91"/>
</g>
<!-- 6 -->
<g id="node7" class="node">
<title>6</title>
<path fill="none" stroke="#88d856" stroke-width="2" d="M358,-180C358,-180 290,-180 290,-180 284,-180 278,-174 278,-168 278,-168 278,-156 278,-156 278,-150 284,-144 290,-144 290,-144 358,-144 358,-144 364,-144 370,-150 370,-156 370,-156 370,-168 370,-168 370,-174 364,-180 358,-180"/>
<text text-anchor="middle" x="324" y="-159.5" font-family="sans" font-size="10.00">analyze_scvelo</text>
</g>
<!-- 6&#45;&gt;5 -->
<g id="edge9" class="edge">
<title>6&#45;&gt;5</title>
<path fill="none" stroke="grey" stroke-width="2" d="M297.34,-143.88C283.22,-134.81 265.69,-123.55 250.44,-113.76"/>
<polygon fill="grey" stroke="grey" stroke-width="2" points="252.07,-110.65 241.77,-108.19 248.29,-116.54 252.07,-110.65"/>
</g>
<!-- 7 -->
<g id="node8" class="node">
<title>7</title>
<path fill="none" stroke="#d85656" stroke-width="2" d="M204,-180C204,-180 160,-180 160,-180 154,-180 148,-174 148,-168 148,-168 148,-156 148,-156 148,-150 154,-144 160,-144 160,-144 204,-144 204,-144 210,-144 216,-150 216,-156 216,-156 216,-168 216,-168 216,-174 210,-180 204,-180"/>
<text text-anchor="middle" x="182" y="-159.5" font-family="sans" font-size="10.00">scvelo_ind</text>
</g>
<!-- 7&#45;&gt;5 -->
<g id="edge10" class="edge">
<title>7&#45;&gt;5</title>
<path fill="none" stroke="grey" stroke-width="2" d="M190.16,-143.7C193.91,-135.73 198.45,-126.1 202.62,-117.26"/>
<polygon fill="grey" stroke="grey" stroke-width="2" points="205.84,-118.64 206.94,-108.1 199.51,-115.66 205.84,-118.64"/>
</g>
<!-- 8 -->
<g id="node9" class="node">
<title>8</title>
<path fill="none" stroke="#68d856" stroke-width="2" d="M272,-252C272,-252 216,-252 216,-252 210,-252 204,-246 204,-240 204,-240 204,-228 204,-228 204,-222 210,-216 216,-216 216,-216 272,-216 272,-216 278,-216 284,-222 284,-228 284,-228 284,-240 284,-240 284,-246 278,-252 272,-252"/>
<text text-anchor="middle" x="244" y="-231.5" font-family="sans" font-size="10.00">scvelo_batch</text>
</g>
<!-- 8&#45;&gt;5 -->
<g id="edge11" class="edge">
<title>8&#45;&gt;5</title>
<path fill="none" stroke="grey" stroke-width="2" d="M240.5,-215.87C235.54,-191.56 226.4,-146.82 220.52,-118.01"/>
<polygon fill="grey" stroke="grey" stroke-width="2" points="223.94,-117.29 218.51,-108.19 217.08,-118.69 223.94,-117.29"/>
</g>
<!-- 9 -->
<g id="node10" class="node">
<title>9</title>
<path fill="none" stroke="#56d8a9" stroke-width="2" d="M344,-252C344,-252 314,-252 314,-252 308,-252 302,-246 302,-240 302,-240 302,-228 302,-228 302,-222 308,-216 314,-216 314,-216 344,-216 344,-216 350,-216 356,-222 356,-228 356,-228 356,-240 356,-240 356,-246 350,-252 344,-252"/>
<text text-anchor="middle" x="329" y="-231.5" font-family="sans" font-size="10.00">scvelo</text>
</g>
<!-- 9&#45;&gt;6 -->
<g id="edge12" class="edge">
<title>9&#45;&gt;6</title>
<path fill="none" stroke="grey" stroke-width="2" d="M327.76,-215.7C327.21,-207.98 326.55,-198.71 325.94,-190.11"/>
<polygon fill="grey" stroke="grey" stroke-width="2" points="329.43,-189.83 325.22,-180.1 322.44,-190.33 329.43,-189.83"/>
</g>
<!-- 10 -->
<g id="node11" class="node">
<title>10</title>
<path fill="none" stroke="#569ad8" stroke-width="2" d="M276.5,-396C276.5,-396 211.5,-396 211.5,-396 205.5,-396 199.5,-390 199.5,-384 199.5,-384 199.5,-372 199.5,-372 199.5,-366 205.5,-360 211.5,-360 211.5,-360 276.5,-360 276.5,-360 282.5,-360 288.5,-366 288.5,-372 288.5,-372 288.5,-384 288.5,-384 288.5,-390 282.5,-396 276.5,-396"/>
<text text-anchor="middle" x="244" y="-375.5" font-family="sans" font-size="10.00">CB_correct_ind</text>
</g>
<!-- 10&#45;&gt;7 -->
<g id="edge13" class="edge">
<title>10&#45;&gt;7</title>
<path fill="none" stroke="grey" stroke-width="2" d="M222.8,-359.58C212.88,-350.15 201.96,-337.65 196,-324 176.95,-280.33 177.01,-223.76 179.21,-190.61"/>
<polygon fill="grey" stroke="grey" stroke-width="2" points="182.73,-190.57 180.02,-180.32 175.75,-190.02 182.73,-190.57"/>
</g>
<!-- 11 -->
<g id="node12" class="node">
<title>11</title>
<path fill="none" stroke="#56c1d8" stroke-width="2" d="M271,-324C271,-324 217,-324 217,-324 211,-324 205,-318 205,-312 205,-312 205,-300 205,-300 205,-294 211,-288 217,-288 217,-288 271,-288 271,-288 277,-288 283,-294 283,-300 283,-300 283,-312 283,-312 283,-318 277,-324 271,-324"/>
<text text-anchor="middle" x="244" y="-303.5" font-family="sans" font-size="10.00">loom_merge</text>
</g>
<!-- 10&#45;&gt;11 -->
<g id="edge18" class="edge">
<title>10&#45;&gt;11</title>
<path fill="none" stroke="grey" stroke-width="2" d="M244,-359.7C244,-351.98 244,-342.71 244,-334.11"/>
<polygon fill="grey" stroke="grey" stroke-width="2" points="247.5,-334.1 244,-324.1 240.5,-334.1 247.5,-334.1"/>
</g>
<!-- 11&#45;&gt;8 -->
<g id="edge14" class="edge">
<title>11&#45;&gt;8</title>
<path fill="none" stroke="grey" stroke-width="2" d="M244,-287.7C244,-279.98 244,-270.71 244,-262.11"/>
<polygon fill="grey" stroke="grey" stroke-width="2" points="247.5,-262.1 244,-252.1 240.5,-262.1 247.5,-262.1"/>
</g>
<!-- 11&#45;&gt;9 -->
<g id="edge15" class="edge">
<title>11&#45;&gt;9</title>
<path fill="none" stroke="grey" stroke-width="2" d="M265.01,-287.7C275.72,-278.88 288.89,-268.03 300.5,-258.47"/>
<polygon fill="grey" stroke="grey" stroke-width="2" points="302.74,-261.16 308.23,-252.1 298.29,-255.76 302.74,-261.16"/>
</g>
<!-- 12 -->
<g id="node13" class="node">
<title>12</title>
<path fill="none" stroke="#d8bc56" stroke-width="2" d="M302.5,-468C302.5,-468 267.5,-468 267.5,-468 261.5,-468 255.5,-462 255.5,-456 255.5,-456 255.5,-444 255.5,-444 255.5,-438 261.5,-432 267.5,-432 267.5,-432 302.5,-432 302.5,-432 308.5,-432 314.5,-438 314.5,-444 314.5,-444 314.5,-456 314.5,-456 314.5,-462 308.5,-468 302.5,-468"/>
<text text-anchor="middle" x="285" y="-447.5" font-family="sans" font-size="10.00">velocyto</text>
</g>
<!-- 12&#45;&gt;10 -->
<g id="edge16" class="edge">
<title>12&#45;&gt;10</title>
<path fill="none" stroke="grey" stroke-width="2" d="M274.87,-431.7C270.15,-423.64 264.44,-413.89 259.22,-404.98"/>
<polygon fill="grey" stroke="grey" stroke-width="2" points="262.09,-402.96 254.02,-396.1 256.05,-406.5 262.09,-402.96"/>
</g>
<!-- 13&#45;&gt;10 -->
<g id="edge17" class="edge">
<title>13&#45;&gt;10</title>
<path fill="none" stroke="grey" stroke-width="2" d="M205.61,-431.7C211.6,-423.47 218.88,-413.48 225.48,-404.42"/>
<polygon fill="grey" stroke="grey" stroke-width="2" points="228.48,-406.25 231.54,-396.1 222.82,-402.13 228.48,-406.25"/>
</g>
<!-- 14 -->
<g id="node15" class="node">
<title>14</title>
<path fill="none" stroke="#567bd8" stroke-width="2" d="M316,-540C316,-540 254,-540 254,-540 248,-540 242,-534 242,-528 242,-528 242,-516 242,-516 242,-510 248,-504 254,-504 254,-504 316,-504 316,-504 322,-504 328,-510 328,-516 328,-516 328,-528 328,-528 328,-534 322,-540 316,-540"/>
<text text-anchor="middle" x="285" y="-519.5" font-family="sans" font-size="10.00">samtools_sort</text>
</g>
<!-- 14&#45;&gt;12 -->
<g id="edge19" class="edge">
<title>14&#45;&gt;12</title>
<path fill="none" stroke="grey" stroke-width="2" d="M285,-503.7C285,-495.98 285,-486.71 285,-478.11"/>
<polygon fill="grey" stroke="grey" stroke-width="2" points="288.5,-478.1 285,-468.1 281.5,-478.1 288.5,-478.1"/>
</g>
</g>
</svg>
