<?xml version="1.0" encoding="UTF-8" standalone="no"?>
<!DOCTYPE svg PUBLIC "-//W3C//DTD SVG 1.1//EN"
 "http://www.w3.org/Graphics/SVG/1.1/DTD/svg11.dtd">
<!-- Generated by graphviz version 2.38.0 (20140413.2041)
 -->
<!-- Title: snakemake_dag Pages: 1 -->
<svg width="435pt" height="260pt"
 viewBox="0.00 0.00 434.50 260.00" xmlns="http://www.w3.org/2000/svg" xmlns:xlink="http://www.w3.org/1999/xlink">
<g id="graph0" class="graph" transform="scale(1 1) rotate(0) translate(4 256)">
<title>snakemake_dag</title>
<polygon fill="white" stroke="none" points="-4,4 -4,-256 430.5,-256 430.5,4 -4,4"/>
<!-- 0 -->
<g id="node1" class="node"><title>0</title>
<path fill="none" stroke="#56d8c9" stroke-width="2" d="M238.5,-36C238.5,-36 208.5,-36 208.5,-36 202.5,-36 196.5,-30 196.5,-24 196.5,-24 196.5,-12 196.5,-12 196.5,-6 202.5,-0 208.5,-0 208.5,-0 238.5,-0 238.5,-0 244.5,-0 250.5,-6 250.5,-12 250.5,-12 250.5,-24 250.5,-24 250.5,-30 244.5,-36 238.5,-36"/>
<text text-anchor="middle" x="223.5" y="-15.5" font-family="sans" font-size="10.00">all</text>
</g>
<!-- 1 -->
<g id="node2" class="node"><title>1</title>
<path fill="none" stroke="#d8a456" stroke-width="2" d="M107,-108C107,-108 12,-108 12,-108 6,-108 0,-102 0,-96 0,-96 0,-84 0,-84 0,-78 6,-72 12,-72 12,-72 107,-72 107,-72 113,-72 119,-78 119,-84 119,-84 119,-96 119,-96 119,-102 113,-108 107,-108"/>
<text text-anchor="middle" x="59.5" y="-87.5" font-family="sans" font-size="10.00">preprocessing_report</text>
</g>
<!-- 1&#45;&gt;0 -->
<g id="edge2" class="edge"><title>1&#45;&gt;0</title>
<path fill="none" stroke="grey" stroke-width="2" d="M99.6189,-71.8761C126.19,-60.5347 160.781,-45.7703 186.656,-34.7262"/>
<polygon fill="grey" stroke="grey" stroke-width="2" points="188.287,-37.8353 196.111,-30.6906 185.539,-31.3972 188.287,-37.8353"/>
</g>
<!-- 2 -->
<g id="node3" class="node"><title>2</title>
<path fill="none" stroke="#d85656" stroke-width="2" d="M258,-252C258,-252 197,-252 197,-252 191,-252 185,-246 185,-240 185,-240 185,-228 185,-228 185,-222 191,-216 197,-216 197,-216 258,-216 258,-216 264,-216 270,-222 270,-228 270,-228 270,-240 270,-240 270,-246 264,-252 258,-252"/>
<text text-anchor="middle" x="227.5" y="-231.5" font-family="sans" font-size="10.00">preprocessing</text>
</g>
<!-- 2&#45;&gt;0 -->
<g id="edge1" class="edge"><title>2&#45;&gt;0</title>
<path fill="none" stroke="grey" stroke-width="2" d="M198.46,-215.837C186.182,-206.866 173.192,-194.68 166.5,-180 145.274,-133.438 178.57,-76.4867 202.524,-44.3139"/>
<polygon fill="grey" stroke="grey" stroke-width="2" points="205.359,-46.3695 208.677,-36.3076 199.808,-42.1042 205.359,-46.3695"/>
</g>
<!-- 3 -->
<g id="node4" class="node"><title>3</title>
<path fill="none" stroke="#c6d856" stroke-width="2" d="M267.5,-180C267.5,-180 187.5,-180 187.5,-180 181.5,-180 175.5,-174 175.5,-168 175.5,-168 175.5,-156 175.5,-156 175.5,-150 181.5,-144 187.5,-144 187.5,-144 267.5,-144 267.5,-144 273.5,-144 279.5,-150 279.5,-156 279.5,-156 279.5,-168 279.5,-168 279.5,-174 273.5,-180 267.5,-180"/>
<text text-anchor="middle" x="227.5" y="-159.5" font-family="sans" font-size="10.00">integration_report</text>
</g>
<!-- 2&#45;&gt;3 -->
<g id="edge7" class="edge"><title>2&#45;&gt;3</title>
<path fill="none" stroke="grey" stroke-width="2" d="M227.5,-215.697C227.5,-207.983 227.5,-198.712 227.5,-190.112"/>
<polygon fill="grey" stroke="grey" stroke-width="2" points="231,-190.104 227.5,-180.104 224,-190.104 231,-190.104"/>
</g>
<!-- 4 -->
<g id="node5" class="node"><title>4</title>
<path fill="none" stroke="#78d856" stroke-width="2" d="M355.5,-180C355.5,-180 309.5,-180 309.5,-180 303.5,-180 297.5,-174 297.5,-168 297.5,-168 297.5,-156 297.5,-156 297.5,-150 303.5,-144 309.5,-144 309.5,-144 355.5,-144 355.5,-144 361.5,-144 367.5,-150 367.5,-156 367.5,-156 367.5,-168 367.5,-168 367.5,-174 361.5,-180 355.5,-180"/>
<text text-anchor="middle" x="332.5" y="-159.5" font-family="sans" font-size="10.00">integration</text>
</g>
<!-- 2&#45;&gt;4 -->
<g id="edge8" class="edge"><title>2&#45;&gt;4</title>
<path fill="none" stroke="grey" stroke-width="2" d="M253.186,-215.876C266.788,-206.808 283.672,-195.552 298.361,-185.759"/>
<polygon fill="grey" stroke="grey" stroke-width="2" points="300.336,-188.649 306.715,-180.19 296.453,-182.825 300.336,-188.649"/>
</g>
<!-- 3&#45;&gt;0 -->
<g id="edge3" class="edge"><title>3&#45;&gt;0</title>
<path fill="none" stroke="grey" stroke-width="2" d="M227.018,-143.871C226.336,-119.67 225.083,-75.2108 224.272,-46.3932"/>
<polygon fill="grey" stroke="grey" stroke-width="2" points="227.764,-46.0867 223.984,-36.1893 220.767,-46.2839 227.764,-46.0867"/>
</g>
<!-- 4&#45;&gt;0 -->
<g id="edge4" class="edge"><title>4&#45;&gt;0</title>
<path fill="none" stroke="grey" stroke-width="2" d="M302.631,-143.837C288.684,-134.641 272.722,-122.266 261.5,-108 246.951,-89.5049 236.947,-64.6067 230.87,-45.8482"/>
<polygon fill="grey" stroke="grey" stroke-width="2" points="234.171,-44.6734 227.894,-36.1381 227.478,-46.7247 234.171,-44.6734"/>
</g>
<!-- 5 -->
<g id="node6" class="node"><title>5</title>
<path fill="none" stroke="#56d87b" stroke-width="2" d="M342.5,-108C342.5,-108 282.5,-108 282.5,-108 276.5,-108 270.5,-102 270.5,-96 270.5,-96 270.5,-84 270.5,-84 270.5,-78 276.5,-72 282.5,-72 282.5,-72 342.5,-72 342.5,-72 348.5,-72 354.5,-78 354.5,-84 354.5,-84 354.5,-96 354.5,-96 354.5,-102 348.5,-108 342.5,-108"/>
<text text-anchor="middle" x="312.5" y="-87.5" font-family="sans" font-size="10.00">cluster_report</text>
</g>
<!-- 4&#45;&gt;5 -->
<g id="edge9" class="edge"><title>4&#45;&gt;5</title>
<path fill="none" stroke="grey" stroke-width="2" d="M327.556,-143.697C325.328,-135.898 322.645,-126.509 320.165,-117.829"/>
<polygon fill="grey" stroke="grey" stroke-width="2" points="323.5,-116.758 317.387,-108.104 316.769,-118.681 323.5,-116.758"/>
</g>
<!-- 6 -->
<g id="node7" class="node"><title>6</title>
<path fill="none" stroke="#56a2d8" stroke-width="2" d="M414.5,-108C414.5,-108 384.5,-108 384.5,-108 378.5,-108 372.5,-102 372.5,-96 372.5,-96 372.5,-84 372.5,-84 372.5,-78 378.5,-72 384.5,-72 384.5,-72 414.5,-72 414.5,-72 420.5,-72 426.5,-78 426.5,-84 426.5,-84 426.5,-96 426.5,-96 426.5,-102 420.5,-108 414.5,-108"/>
<text text-anchor="middle" x="399.5" y="-87.5" font-family="sans" font-size="10.00">cluster</text>
</g>
<!-- 4&#45;&gt;6 -->
<g id="edge10" class="edge"><title>4&#45;&gt;6</title>
<path fill="none" stroke="grey" stroke-width="2" d="M349.062,-143.697C357.175,-135.22 367.088,-124.864 375.971,-115.583"/>
<polygon fill="grey" stroke="grey" stroke-width="2" points="378.743,-117.749 383.129,-108.104 373.686,-112.908 378.743,-117.749"/>
</g>
<!-- 5&#45;&gt;0 -->
<g id="edge5" class="edge"><title>5&#45;&gt;0</title>
<path fill="none" stroke="grey" stroke-width="2" d="M290.5,-71.6966C279.291,-62.8807 265.498,-52.0321 253.346,-42.4742"/>
<polygon fill="grey" stroke="grey" stroke-width="2" points="255.271,-39.5354 245.247,-36.1043 250.943,-45.0375 255.271,-39.5354"/>
</g>
<!-- 6&#45;&gt;0 -->
<g id="edge6" class="edge"><title>6&#45;&gt;0</title>
<path fill="none" stroke="grey" stroke-width="2" d="M372.477,-75.958C369.464,-74.5876 366.427,-73.2426 363.5,-72 328.834,-57.2805 288.554,-42.2425 260.124,-31.9632"/>
<polygon fill="grey" stroke="grey" stroke-width="2" points="261.185,-28.6254 250.59,-28.534 258.815,-35.2122 261.185,-28.6254"/>
</g>
</g>
</svg>
